# xmcd
#
# Track frame offsets: 
#        150
#        16252
#        31900
#        44697
#        63355
#        70870
#        86397
#        95777
#        114012
#        130297
#        139185
#        152530
#        164250
#
# Disc length: 2411 seconds
#
# Revision: 4
# Processed by: cddbd v1.5.2PL0 Copyright (c) Steve Scherf et al.
# Submitted via: ExactAudioCopy v0.99pb4
#
DISCID=a409690d
DTITLE=Charlie Musselwhite - The Harmonica According To Charlie Mussel
DTITLE=white
DYEAR=1994
DGENRE=Blues
TTITLE0=Harpin' On A Riff
TTITLE1=Run Here Mama
TTITLE2=Tuff
TTITLE3=Pistol In Your Face
TTITLE4=Azul Para Amparo
TTITLE5=Blues All Night
TTITLE6=Fast Life Blues
TTITLE7=Way I Feel
TTITLE8=Chicago Sunset
TTITLE9=Blues In The Dark
TTITLE10=Shelby County Blues
TTITLE11=Scufflin'
TTITLE12=Hard Times
EXTD=
EXTT0=
EXTT1=
EXTT2=
EXTT3=
EXTT4=
EXTT5=
EXTT6=
EXTT7=
EXTT8=
EXTT9=
EXTT10=
EXTT11=
EXTT12=
PLAYORDER=
